<svg width="26" height="26" viewBox="0 0 26 26" fill="none" xmlns="http://www.w3.org/2000/svg">
<path d="M25 9.47057V3.82353C25 2.26413 23.7358 1 22.1765 1H16.5294M3.82353 1H6.64702C8.20646 1 9.47061 2.26413 9.47061 3.82353V6.64706C9.47061 8.20642 8.20646 9.47057 6.64702 9.47057H3.82353C2.26414 9.47057 1 8.20642 1 6.64706V3.82353C1 2.26413 2.26414 1 3.82353 1ZM3.82353 16.5295H6.64702C8.20646 16.5295 9.47061 17.7935 9.47061 19.353V22.1765C9.47061 23.7359 8.20646 25 6.64702 25H3.82353C2.26414 25 1 23.7359 1 22.1765V19.353C1 17.7935 2.26414 16.5295 3.82353 16.5295ZM19.3529 16.5295H22.1765C23.7358 16.5295 25 17.7935 25 19.353V22.1765C25 23.7359 23.7358 25 22.1765 25H19.3529C17.7936 25 16.5294 23.7359 16.5294 22.1765V19.353C16.5294 17.7935 17.7936 16.5295 19.3529 16.5295ZM18.6471 5.23527C17.4775 5.23527 16.5294 6.18338 16.5294 7.35292C16.5294 8.52245 17.4775 9.47057 18.6471 9.47057C19.8166 9.47057 20.7647 8.52245 20.7647 7.35292C20.7647 6.18338 19.8166 5.23527 18.6471 5.23527Z" stroke="#8D8D8D" stroke-width="2" stroke-linecap="round" stroke-linejoin="round"/>
</svg>
