<svg width="21" height="25" viewBox="0 0 21 25" fill="none" xmlns="http://www.w3.org/2000/svg">
<path d="M10.5596 24.117L0.195961 18.117V6.117L10.5596 0.117004L20.9232 6.117V18.117L10.5596 24.117ZM10.5596 2.63919L2.37778 7.37482V16.8592L10.5596 21.5959L18.7414 16.8592V7.37482L10.5596 2.63919ZM10.5596 16.4806C9.40269 16.4774 8.29371 16.018 7.47341 15.2021C6.22568 13.954 5.8526 12.0772 6.52812 10.4467C7.20364 8.81631 8.79472 7.75337 10.5596 7.75337C11.7163 7.75647 12.8249 8.21594 13.6447 9.03191C15.3481 10.7359 15.3481 13.4981 13.6447 15.2021C12.8248 16.0178 11.7162 16.4772 10.5596 16.4806ZM10.5596 9.93519C9.51865 9.93497 8.62258 10.67 8.41934 11.6909C8.21605 12.7118 8.76221 13.7341 9.72385 14.1326C10.6854 14.5311 11.7946 14.1949 12.373 13.3294C12.9515 12.4641 12.8381 11.3106 12.1021 10.5745C11.6939 10.1641 11.1385 9.93387 10.5596 9.93519Z" fill="#8D8D8D"/>
</svg>
