<svg width="24" height="24" viewBox="0 0 24 24" fill="none" xmlns="http://www.w3.org/2000/svg">
<path d="M2.99999 1.50003H1.49999V21C1.49999 21.3979 1.65803 21.7794 1.93933 22.0607C2.22064 22.342 2.60217 22.5 2.99999 22.5H22.5V21H2.99999V1.50003Z" fill="#8D8D8D"/>
<path d="M22.5 6.75H17.25V8.25H19.9425L14.25 13.9425L11.0325 10.7175C10.9628 10.6472 10.8798 10.5914 10.7884 10.5533C10.697 10.5153 10.599 10.4957 10.5 10.4957C10.401 10.4957 10.303 10.5153 10.2116 10.5533C10.1202 10.5914 10.0372 10.6472 9.96751 10.7175L4.50001 16.1925L5.55751 17.25L10.5 12.3075L13.7175 15.5325C13.7872 15.6028 13.8702 15.6586 13.9616 15.6967C14.053 15.7347 14.151 15.7543 14.25 15.7543C14.349 15.7543 14.447 15.7347 14.5384 15.6967C14.6298 15.6586 14.7128 15.6028 14.7825 15.5325L21 9.3075V12H22.5V6.75Z" fill="#8D8D8D"/>
</svg>
